<?xml version="1.0" encoding="UTF-8" standalone="no"?>
<!DOCTYPE svg PUBLIC "-//W3C//DTD SVG 20010904//EN"
              "http://www.w3.org/TR/2001/REC-SVG-20010904/DTD/svg10.dtd">

<svg xmlns="http://www.w3.org/2000/svg"
     width="2.84722in" height="1.56944in"
     viewBox="0 0 205 113">
  <path id="Rooms"
        fill="none" stroke="black" stroke-width="1"
        d="M 30.00,20.00
           C 30.00,20.00 30.00,33.00 30.00,33.00
             30.00,33.00 11.00,33.00 11.00,33.00
             11.00,33.00 11.00,20.00 11.00,20.00
             11.00,20.00 30.00,20.00 30.00,20.00 Z
           M 54.00,20.00
           C 54.00,20.00 54.00,71.00 54.00,71.00
             54.00,71.00 35.00,71.00 35.00,71.00
             35.00,71.00 35.00,20.00 35.00,20.00
             35.00,20.00 54.00,20.00 54.00,20.00 Z
           M 78.00,20.00
           C 78.00,20.00 78.00,33.00 78.00,33.00
             78.00,33.00 59.00,33.00 59.00,33.00
             59.00,33.00 59.00,20.00 59.00,20.00
             59.00,20.00 78.00,20.00 78.00,20.00 Z
           M 165.00,20.00
           C 165.00,20.00 165.00,52.00 165.00,52.00
             165.00,52.00 146.00,52.00 146.00,52.00
             146.00,52.00 146.00,20.00 146.00,20.00
             146.00,20.00 165.00,20.00 165.00,20.00 Z
           M 189.00,20.00
           C 189.00,20.00 189.00,33.00 189.00,33.00
             189.00,33.00 170.00,33.00 170.00,33.00
             170.00,33.00 170.00,20.00 170.00,20.00
             170.00,20.00 189.00,20.00 189.00,20.00 Z
           M 30.00,39.00
           C 30.00,39.00 30.00,52.00 30.00,52.00
             30.00,52.00 11.00,52.00 11.00,52.00
             11.00,52.00 11.00,39.00 11.00,39.00
             11.00,39.00 30.00,39.00 30.00,39.00 Z
           M 92.00,39.00
           C 92.00,39.00 92.00,52.00 92.00,52.00
             92.00,52.00 60.00,52.00 60.00,52.00
             60.00,52.00 60.00,39.00 60.00,39.00
             60.00,39.00 92.00,39.00 92.00,39.00 Z
           M 189.00,39.00
           C 189.00,39.00 189.00,52.00 189.00,52.00
             189.00,52.00 170.00,52.00 170.00,52.00
             170.00,52.00 170.00,39.00 170.00,39.00
             170.00,39.00 189.00,39.00 189.00,39.00 Z
           M 92.00,58.00
           C 92.00,58.00 92.00,71.00 92.00,71.00
             92.00,71.00 60.00,71.00 60.00,71.00
             60.00,71.00 60.00,58.00 60.00,58.00
             60.00,58.00 92.00,58.00 92.00,58.00 Z
           M 165.00,58.00
           C 165.00,58.00 165.00,71.00 165.00,71.00
             165.00,71.00 146.00,71.00 146.00,71.00
             146.00,71.00 146.00,58.00 146.00,58.00
             146.00,58.00 165.00,58.00 165.00,58.00 Z
           M 54.00,77.00
           C 54.00,77.00 54.00,90.00 54.00,90.00
             54.00,90.00 35.00,90.00 35.00,90.00
             35.00,90.00 35.00,77.00 35.00,77.00
             35.00,77.00 54.00,77.00 54.00,77.00 Z" />
</svg>
